<svg id="burn" xmlns="http://www.w3.org/2000/svg" width="80" height="80" viewBox="0 0 80 80">
  <g id="Group_59" data-name="Group 59" transform="translate(4092 -8769)">
    <path id="Path_5" data-name="Path 5" d="M40,0A40,40,0,1,1,0,40,40,40,0,0,1,40,0Z" transform="translate(-4092 8769)" fill="#95a4b4"/>
  </g>
  <path id="fire-svgrepo-com" d="M95.372,8.677a2.5,2.5,0,0,0-4.607,1.587,6.422,6.422,0,0,1-1.223,5.1A9.956,9.956,0,0,1,88.387,3.8a2.618,2.618,0,0,0-.2-2.778A2.5,2.5,0,0,0,86.168,0h0a2.5,2.5,0,0,0-2.016,1.022C82.907,2.717,72,17.835,72,26.364A13.925,13.925,0,0,0,86.167,40c7.9,0,14.583-6.245,14.583-13.636A35.618,35.618,0,0,0,95.372,8.677ZM86.241,37.5c-4.13,0-7.478-2.67-7.478-5.966,0-3.538,5.151-10.009,6.9-12.108.169-.2.546-.1.541.151a21.418,21.418,0,0,0,.29,4.172c.288,1.553.841,3.031,1.882,3.694a4.3,4.3,0,0,0,2.45-3.692.31.31,0,0,1,.553-.123,15.415,15.415,0,0,1,2.605,7.906c0,3.3-3.615,5.966-7.745,5.966Z" transform="translate(-46.375 20)" fill="#fff"/>
</svg>
