<svg id="Component_1_2" data-name="Component 1 – 2" xmlns="http://www.w3.org/2000/svg" width="80" height="80" viewBox="0 0 80 80">
  <path id="Path_5" data-name="Path 5" d="M40,0A40,40,0,1,1,0,40,40,40,0,0,1,40,0Z" fill="#95a4b4"/>
  <g id="coins-svgrepo-com_1_" data-name="coins-svgrepo-com (1)" transform="translate(12.119 18.578)">
    <g id="Group_5" data-name="Group 5" transform="translate(8.289)">
      <g id="Group_1" data-name="Group 1" transform="translate(13.043)">
        <path id="Path_1" data-name="Path 1" d="M93.484,6.681C93.484,2.936,87.67,0,80.249,0,74.07,0,68.919,2,67.431,4.98l-.088.173.194-.009c.353-.019.729-.028,1.148-.033h.059l.033-.047c1.618-2.276,6.335-3.869,11.472-3.869,6.528,0,12.04,2.512,12.04,5.486,0,2.623-4.5,5.006-10.232,5.423l-.107.007v1.2l.123-.007c4.571-.305,8.353-1.715,10.217-3.795v1.758c0,1.914,0,6.392-10.23,6.84l-.109,0V19.3l.12,0c5.122-.224,8.555-1.474,10.219-3.717v1.275c0,1.911,0,6.39-10.23,6.837l-.109,0v1.193l.12,0c5.121-.222,8.555-1.474,10.219-3.717v1.277c0,1.911,0,6.392-10.23,6.837l-.109,0v1.194l.12-.007c5.122-.222,8.558-1.473,10.219-3.717v1.718c0,1.928,0,6.445-10.415,6.845l-.087,0-.019.085a5.969,5.969,0,0,1-.305.96l-.069.163.178,0c11.911-.36,11.911-5.95,11.911-8.053v-4.7h-.061a11.15,11.15,0,0,0,.061-1.333v-4.7h-.021c.021-.35.021-.66.021-.892V12.27l-.023-.088c.023-.36.023-.679.023-.918V6.681Z" transform="translate(-67.343)" fill="#fff"/>
      </g>
      <g id="Group_2" data-name="Group 2" transform="translate(0 6.071)">
        <path id="Path_2" data-name="Path 2" d="M21.522,27.486c-7.419,0-13.232,2.936-13.232,6.681v4.585c0,.269,0,.56.026.892H8.289v4.7c0,.27,0,.564.026.895H8.289v4.7a9.988,9.988,0,0,0,.069,1.332H8.289v4.7c0,2.051,0,8.3,13.322,8.3,13.142,0,13.142-6.03,13.142-8.3v-4.7H34.7a11.576,11.576,0,0,0,.059-1.332v-4.7h-.018c.018-.35.018-.662.018-.895v-4.7h-.018c.018-.35.018-.66.018-.892V34.167C34.754,30.422,28.941,27.486,21.522,27.486Zm0,12.167c-6.525,0-12.038-2.512-12.038-5.487S15,28.681,21.522,28.681s12.04,2.512,12.04,5.486S28.046,39.653,21.522,39.653Zm.089,5.977c-12.127,0-12.127-5-12.127-6.878v-1.76c2.113,2.352,6.783,3.857,12.038,3.857s9.925-1.505,12.04-3.857v1.76C33.562,40.808,33.562,45.63,21.611,45.63Zm0,5.588c-12.127,0-12.127-5-12.127-6.878V42.959c1.883,2.565,5.96,3.863,12.127,3.863,6.085,0,10.1-1.263,11.95-3.757V44.34C33.562,46.4,33.562,51.219,21.611,51.219Zm0,5.59c-12.127,0-12.127-5-12.127-6.877V48.55c1.883,2.564,5.96,3.864,12.127,3.864,6.085,0,10.1-1.264,11.95-3.757v1.275C33.562,51.989,33.562,56.809,21.611,56.809Zm0,6.258c-12.127,0-12.127-5.162-12.127-7.1V54.138C11.367,56.7,15.444,58,21.611,58c6.085,0,10.1-1.264,11.95-3.757v1.715C33.562,58.089,33.562,63.067,21.611,63.067Z" transform="translate(-8.289 -27.486)" fill="#fff"/>
      </g>
      <g id="Group_3" data-name="Group 3" transform="translate(6.179 9.944)">
        <path id="Path_3" data-name="Path 3" d="M49.181,45.022l-1.526.516a10.344,10.344,0,0,0-2.373-.274A7.617,7.617,0,0,0,42.9,45.6c-.622.209-.937.452-.989.762-.055.329.2.688.816,1.167q.461.37.428.572c-.017.093-.131.232-.579.383a4.464,4.464,0,0,1-1.391.2,5.472,5.472,0,0,1-1.739-.277,2.837,2.837,0,0,1-1.462-.9l-.038-.064-1.611.255.069.14a2.788,2.788,0,0,0,1.4.946l-1.536.515,1.313.443,1.587-.533a10.051,10.051,0,0,0,5.016-.074c.717-.239,1.079-.506,1.137-.842.055-.312-.165-.655-.688-1.074-.258-.215-.594-.518-.563-.691.019-.1.178-.2.469-.3a3.963,3.963,0,0,1,1.247-.189A4.75,4.75,0,0,1,47.3,46.3a2.513,2.513,0,0,1,1.33.788l.043.05,1.647-.248-.128-.157A3.037,3.037,0,0,0,49,45.968l1.495-.5Z" transform="translate(-36.267 -45.022)" fill="#fff"/>
      </g>
      <g id="Group_4" data-name="Group 4" transform="translate(19.471 4.303)">
        <path id="Path_4" data-name="Path 4" d="M100.05,19.934l.241-.154-1.5-.3-.038.021a1.106,1.106,0,0,0-.594.97l-1.718-.1.14.662,1.8.109c.532.819,2.035,1.187,3.179,1.256.18.009.35.014.513.014a2.907,2.907,0,0,0,2.447-.921,1.712,1.712,0,0,1,1.673-.648c.329.019,1.405.126,1.522.679.071.329-.135.534-.369.71l-.2.151,1.458.3.043-.031a1,1,0,0,0,.457-.821l1.673.1-.142-.662-1.73-.107a4.073,4.073,0,0,0-3.014-1.192c-.147-.009-.286-.014-.419-.014a2.768,2.768,0,0,0-2.391,1,1.91,1.91,0,0,1-1.772.565c-.949-.057-1.642-.369-1.731-.779S99.879,20.043,100.05,19.934Z" transform="translate(-96.446 -19.484)" fill="#fff"/>
      </g>
    </g>
  </g>
</svg>
