<svg xmlns="http://www.w3.org/2000/svg" width="300" height="185.651" viewBox="0 0 300 185.651">
  <g id="creditcard-svg" transform="translate(-1 -4.069)">
    <g id="_2d5b99ff" data-name="#2d5b99ff" transform="translate(1 4.069)">
      <path id="Path_10" data-name="Path 10" d="M1,16.15C1.072,9.817,6.853,4.17,13.267,4.123q136.973-.013,273.943-.05a13.742,13.742,0,0,1,9.878,3.548A12.786,12.786,0,0,1,301,16.762q0,80.12,0,160.242a12.757,12.757,0,0,1-6.818,11.013c-1.241.763-2.718.993-3.983,1.7H12.2a10.6,10.6,0,0,0-1.834-.665A13.035,13.035,0,0,1,1,178.193Q.99,97.177,1,16.15m188.214,6.575c.048,6.188-.165,12.382.12,18.567,1.364.03,2.727.009,4.091.006a24.213,24.213,0,0,1,.345-5.833c1.7,1.7,2.706,3.909,4.07,5.854,1.675-.03,3.351,0,5.026-.044-1.729-2.525-3.456-5.053-5.134-7.61,1.579-1.892,3.189-3.767,4.657-5.748-1.672-.006-3.345,0-5.014.074-1.253,1.724-2.538,3.424-3.911,5.053-.063-3.438-.021-6.877-.021-10.315q-2.117,0-4.229,0m-45.593.837q-.018,8.87-.03,17.739c3.327-.086,6.68.248,9.986-.26a5.31,5.31,0,0,0,4.289-6.691" transform="translate(-1 -4.069)" fill="#95a4b4"/>
      <path id="Path_16" data-name="Path 16" d="M444.5,352.52q1.246.053,2.5.148c-.124,1.588-.121,3.181-.222,4.769-.707.047-1.416.092-2.123.133C444.565,355.888,444.5,354.205,444.5,352.52Z" transform="translate(-311.568 -249.498)" fill="#95a4b4"/>
      <path id="Path_17" data-name="Path 17" d="M522.01,352.7c2.073-.033,4.145-.024,6.218.009-.015,1.053-.092,2.1-.2,3.152a41.731,41.731,0,0,1-5.957.142Q522.023,354.35,522.01,352.7Z" transform="translate(-365.818 -249.612)" fill="#95a4b4"/>
      <path id="Path_18" data-name="Path 18" d="M570.07,352.728c.831-.047,1.659-.1,2.489-.148.012,1.635,0,3.27-.142,4.9-.639.05-1.28.089-1.919.127C570.354,355.98,570.28,354.348,570.07,352.728Z" transform="translate(-399.501 -249.541)" fill="#95a4b4"/>
      <path id="Path_19" data-name="Path 19" d="M438.508,374.2c1.957-.027,3.917.018,5.875.021,0,1.629.121,3.255.148,4.884q-3.033.022-6.061.012C438.485,377.476,438.494,375.838,438.508,374.2Z" transform="translate(-307.324 -264.763)" fill="#95a4b4"/>
      <path id="Path_20" data-name="Path 20" d="M564.516,374.15c.186,0,.556.009.742.015a27.331,27.331,0,0,0,4.692.183,46.056,46.056,0,0,1-.086,4.7c-1.759-.027-3.515-.006-5.272-.024-.124-.562-.251-1.118-.343-1.679A26.777,26.777,0,0,1,564.516,374.15Z" transform="translate(-395.4 -264.733)" fill="#95a4b4"/>
      <path id="Path_21" data-name="Path 21" d="M649.053,378.393c1.857-.106,3.725.092,5.579-.133q.04,1.73.133,3.459c-1.972.1-3.947.2-5.925.157-.027-1.129-.03-2.262,0-3.391Z" transform="translate(-454.614 -267.628)" fill="#95a4b4"/>
      <path id="Path_22" data-name="Path 22" d="M354.66,379.5c1.96-.012,3.923,0,5.887-.012.053,1.064.086,2.129.065,3.193-1.945.074-3.891.044-5.833.071C354.7,381.672,354.675,380.587,354.66,379.5Z" transform="translate(-248.639 -268.495)" fill="#95a4b4"/>
      <path id="Path_23" data-name="Path 23" d="M157.54,424.12c.789-.993,1.629-1.945,2.489-2.88.021.961.047,1.922.074,2.88Q158.822,424.124,157.54,424.12Z" transform="translate(-111.258 -297.901)" fill="#95a4b4"/>
      <path id="Path_24" data-name="Path 24" d="M462.21,433.327a19.63,19.63,0,0,1,2.084.059c-.062,1.135.127,2.729-1.292,3.1C462.083,435.684,462.245,434.418,462.21,433.327Z" transform="translate(-323.972 -306.411)" fill="#95a4b4"/>
      <path id="Path_25" data-name="Path 25" d="M375.5,455.78a2.006,2.006,0,0,1,1.99,2.132,1.913,1.913,0,0,1-2,1.662Q375.458,457.675,375.5,455.78Z" transform="translate(-263.236 -322.229)" fill="#95a4b4"/>
      <path id="Path_26" data-name="Path 26" d="M532.28,457.677c1.65-.009,3.3-.035,4.949-.024-.044.914-.1,1.827-.154,2.741-1.567.035-3.134.012-4.7.018C532.354,459.5,532.324,458.587,532.28,457.677Z" transform="translate(-373.019 -323.546)" fill="#95a4b4"/>
      <path id="Path_27" data-name="Path 27" d="M565.6,457.769q2.475-.009,4.946,0c-.071.9-.118,1.8-.154,2.708-1.552.015-3.1,0-4.657,0C565.686,459.576,565.638,458.671,565.6,457.769Z" transform="translate(-396.351 -323.627)" fill="#95a4b4"/>
      <path id="Path_28" data-name="Path 28" d="M361.1,475.134c.37-.012.742-.018,1.115-.024,0,.381.006.763.009,1.147l-1.153.018c.006-.381.018-.763.03-1.141Z" transform="translate(-253.152 -335.844)" fill="#95a4b4"/>
      <path id="Path_29" data-name="Path 29" d="M169.78,540.79c1.233.213,2.46.467,3.684.73-.192,1.011-.423,2.016-.715,3.007q-.612.022-1.224.053c-.553,0-1.109,0-1.662-.006Q169.832,542.681,169.78,540.79Z" transform="translate(-119.879 -382.105)" fill="#95a4b4"/>
      <path id="Path_30" data-name="Path 30" d="M202.913,540.88c1.407.237,3.033.169,4.169,1.174,1.1,1.132,1.038,2.823,1.4,4.266a7.973,7.973,0,0,1-5.251,2.927c-.083-.455-.166-.908-.225-1.366A62.846,62.846,0,0,1,202.913,540.88Z" transform="translate(-142.349 -382.169)" fill="#95a4b4"/>
      <path id="Path_31" data-name="Path 31" d="M273.889,541.859a2.925,2.925,0,0,1,4.683-.1c1.064,1.546.713,3.524.7,5.289-.9.86-1.836,2.046-3.22,1.945-1.49-.018-2.182-1.543-2.93-2.587.056-1.526-.106-3.2.769-4.544Z" transform="translate(-191.542 -381.995)" fill="#95a4b4"/>
      <path id="Path_32" data-name="Path 32" d="M406.48,541.13a7.222,7.222,0,0,1,2.67.42,1.724,1.724,0,0,1,.018,2.945,8.955,8.955,0,0,1-2.673.6C406.48,543.773,406.489,542.452,406.48,541.13Z" transform="translate(-284.938 -382.345)" fill="#95a4b4"/>
      <path id="Path_33" data-name="Path 33" d="M339.835,541.3a10.832,10.832,0,0,1,3.32.473c2.569,1.322,2.67,5.57.192,7.04a10.54,10.54,0,0,1-3.465.553C339.877,546.678,339.809,543.987,339.835,541.3Z" transform="translate(-238.257 -382.465)" fill="#95a4b4"/>
      <path id="Path_34" data-name="Path 34" d="M139.719,544.973c.18-.482.393-.949.6-1.413.239.781.461,1.567.674,2.356.177.671.352,1.342.529,2.013l-2.575-.027C139.2,546.925,139.423,545.94,139.719,544.973Z" transform="translate(-98.164 -384.056)" fill="#95a4b4"/>
    </g>
    <g id="_fdfdfcff" data-name="#fdfdfcff" transform="translate(29.377 53.756)">
      <path id="Path_43" data-name="Path 43" d="M106.509,177.986a6.251,6.251,0,0,1,6.333-5.845c10.821.027,21.645-.068,32.466.027a6.1,6.1,0,0,1,5.5,4.376c-.009.133-.03.4-.038.532-2.321.225-4.662.115-6.983.375l1.357,1.2c-1.842,1.9-3.811,3.669-5.7,5.52.006.514.009,1.032.015,1.549-.816-.041-1.629-.095-2.439-.169a17.568,17.568,0,0,1-2.049,3.542c-2.324,2.141-4.9,4.021-7.013,6.386-1.815,1.839-3.385,3.968-5.523,5.458a18.322,18.322,0,0,1-1.582-6.41c.476-1.076,1.425-1.871,1.91-2.936.056-.922,0-1.848-.027-2.767-.37.881-.441,1.848-.754,2.75-.544.931-1.257,1.759-1.815,2.688-4.5.006-9.009.006-13.514.071-.325-5.443-.033-10.895-.142-16.344Z" transform="translate(-103.68 -172.124)" fill="#fdfdfc"/>
      <path id="Path_44" data-name="Path 44" d="M106.5,249.068c4.529-.012,9.062.142,13.594.095a10.63,10.63,0,0,0,3.462,8.648c-5.582-1.469-11.386-.639-17.077-.8Q106.489,253.036,106.5,249.068Z" transform="translate(-103.671 -226.319)" fill="#fdfdfc"/>
      <path id="Path_45" data-name="Path 45" d="M106.17,279.458c4.787-.018,9.579-.106,14.36.2l-.328.225c-1.6,1.327-4.113,1.313-5.177,3.282.837.384,1.67.789,2.531,1.129a21.888,21.888,0,0,1-6.986-.095c-2.25-.579-3.6-2.705-4.4-4.736Z" transform="translate(-103.453 -247.706)" fill="#fdfdfc"/>
      <path id="Path_46" data-name="Path 46" d="M734.1,347.63c2.2.177,4.42.089,6.629.216.059.263.177.786.239,1.05-1.863.47-3.808.05-5.7.157-.213,1.877.4,4.065-.92,5.644-.086-.467-.163-.928-.213-1.4C733.986,351.414,734.081,349.519,734.1,347.63Z" transform="translate(-541.65 -295.741)" fill="#fdfdfc"/>
      <path id="Path_47" data-name="Path 47" d="M773.115,346.75c.3.213.6.429.9.653.166,2.076.473,4.423-.881,6.2A36.357,36.357,0,0,1,773.115,346.75Z" transform="translate(-569.057 -295.121)" fill="#fdfdfc"/>
      <path id="Path_48" data-name="Path 48" d="M227.27,356.782c.112-3.166.047-6.333.074-9.5.429.192.86.39,1.292.582-.035,2.483-.044,4.967-.062,7.448,1.36.074,2.72.024,4.08.038.334-2.235-.136-4.571.668-6.735.769,2,.438,4.243.523,6.351.452.355.9.718,1.348,1.085-.381.393-.763.786-1.138,1.186.05,1.537.044,3.075-.035,4.609-.494-.231-1.07-.488-1.209-1.07-.384-1.3.068-2.655-.133-3.974C230.874,356.824,229.071,356.8,227.27,356.782Z" transform="translate(-188.749 -295.494)" fill="#fdfdfc"/>
      <path id="Path_49" data-name="Path 49" d="M309.332,348.43c2.155.03,4.314.024,6.469.015,0,.438,0,.875,0,1.316-1.863-.124-3.731-.086-5.6-.041a33.671,33.671,0,0,0,.343,4.97c1.7-.05,3.4.044,5.1.08a19.048,19.048,0,0,1,.062,7.4,23.98,23.98,0,0,1-6.105.024,3.718,3.718,0,0,1-2.658-2.324,15.615,15.615,0,0,0,7.7.887c-.009-1.576-.018-3.152-.038-4.728-1.789-.015-3.58.015-5.369.006.127-2.534.062-5.068.1-7.6Z" transform="translate(-243.739 -296.304)" fill="#fdfdfc"/>
      <path id="Path_50" data-name="Path 50" d="M350.129,348.19c.783.074,1.564.16,2.345.263-.373.5-.748,1-1.126,1.5,0,2,.05,4,.053,6a54.671,54.671,0,0,1,7.43.248c-.074,1.954-.044,3.914-.174,5.866-2.8-.035-5.6.177-8.4-.053-.568-4.6.053-9.221-.127-13.834m1.257,9.266c.015,1.085.035,2.17.118,3.252,1.942-.027,3.888,0,5.833-.071.021-1.064-.012-2.129-.065-3.193C355.309,357.456,353.345,357.444,351.385,357.456Z" transform="translate(-273.846 -296.135)" fill="#fdfdfc"/>
      <path id="Path_51" data-name="Path 51" d="M435.685,348.42c1.653.024,3.305.009,4.955.118-.089,2.052-.038,4.107.018,6.161q.9.084,1.812.177a20.718,20.718,0,0,1-.52,7.291c-2.371-.062-4.739-.03-7.111-.059q-.492-.452-.99-.9a30.091,30.091,0,0,1,.118-6.256c.544-.231,1.085-.464,1.629-.7.1-1.942.112-3.891.089-5.836m1.239,1.212c0,1.685.065,3.368.151,5.05.707-.041,1.416-.086,2.123-.133.1-1.588.1-3.181.222-4.769q-1.251-.093-2.5-.148m-1.744,6.416c-.015,1.638-.024,3.276-.038,4.917q3.029.009,6.061-.012c-.027-1.629-.148-3.255-.148-4.884C439.1,356.066,437.137,356.021,435.18,356.048Z" transform="translate(-332.376 -296.297)" fill="#fdfdfc"/>
      <path id="Path_52" data-name="Path 52" d="M517.982,347.62a47.285,47.285,0,0,0,8.408.387,62.591,62.591,0,0,1-.157,11.338c-.307-.441-.612-.881-.878-1.345-.124-1.39-.142-2.788-.18-4.181a67.872,67.872,0,0,1-7.066.021c-.18-2.07-.118-4.145-.127-6.221m1.189,1.517q.013,1.65.062,3.3a41.731,41.731,0,0,0,5.957-.142c.106-1.05.183-2.1.2-3.152C523.315,349.113,521.243,349.1,519.17,349.137Z" transform="translate(-391.257 -295.734)" fill="#fdfdfc"/>
      <path id="Path_53" data-name="Path 53" d="M561.807,348q2.4.169,4.816.145A24.353,24.353,0,0,0,567,354.28c.517.112,1.032.225,1.549.34l-.006.177a30.41,30.41,0,0,1-.257,3.438l-.739,0c-.136-.843-.2-1.691-.275-2.537-1.7.024-3.4-.115-5.094.05-.186-.006-.556-.012-.742-.015a26.777,26.777,0,0,0-.266,3.19c-.432.216-.866.435-1.295.653.05-1.629.015-3.258.2-4.878.568-.3,1.141-.588,1.721-.863.053-1.945.038-3.891.021-5.833m1.079,1.5c.21,1.62.284,3.252.429,4.878.639-.038,1.28-.077,1.919-.127.139-1.629.154-3.264.142-4.9C564.544,349.4,563.716,349.455,562.886,349.5Z" transform="translate(-420.538 -296.001)" fill="#fdfdfc"/>
      <path id="Path_54" data-name="Path 54" d="M601.89,347.69a67.586,67.586,0,0,0,8.512.2,22.7,22.7,0,0,1,.151,5.481c-.594,1.526-2.28,2.1-3.344,3.211a14.563,14.563,0,0,0-1.431,1.836c-.047-.9-.077-1.806-.115-2.711a25.152,25.152,0,0,0,3.4-3.164,15.853,15.853,0,0,0,.2-3.332c-2.38-.05-4.937-.405-7.1.846-.095-.786-.186-1.573-.269-2.362Z" transform="translate(-449.908 -295.783)" fill="#fdfdfc"/>
      <path id="Path_55" data-name="Path 55" d="M643.967,347.37c.831.151,1.662.316,2.489.5-.393.65-1.129,1.2-1.082,2.025,0,1.827,0,3.657-.024,5.484,2.581.041,5.224-.2,7.728.585-.39.148-.772.31-1.171.42-.177.027-.526.086-.7.115-1.854.225-3.722.027-5.579.133l-.213.092c-.452.207-.9.417-1.342.624C643.873,354.028,643.991,350.7,643.967,347.37Z" transform="translate(-479.306 -295.558)" fill="#fdfdfc"/>
      <path id="Path_56" data-name="Path 56" d="M811.19,347.67a64.006,64.006,0,0,1,8.811.358c.018,1.481.015,2.96.047,4.441-.281.2-.559.39-.834.588a11.864,11.864,0,0,0-.467-2.271,9.984,9.984,0,0,1,0-1.656c-2.315.012-4.662.34-6.948-.183-.2-.429-.408-.854-.606-1.277Z" transform="translate(-595.982 -295.769)" fill="#fdfdfc"/>
      <path id="Path_57" data-name="Path 57" d="M853.05,347.66a83.606,83.606,0,0,1,8.692.3c.127,1.493.18,2.995.18,4.494-.4.284-.789.571-1.183.851-.041-1.384-.106-2.77-.183-4.154a37.122,37.122,0,0,1-6.927-.171c-.192-.441-.39-.884-.579-1.322Z" transform="translate(-625.466 -295.762)" fill="#fdfdfc"/>
      <path id="Path_58" data-name="Path 58" d="M96.98,348.57c1.78-.136,3.566-.08,5.351-.086q-.035,6.222.033,12.444c.721-.012,1.446-.024,2.167-.033.166-1.617.177-3.24.266-4.861q.612.328,1.224.659c-.024,1.9.024,3.79-.065,5.685-2.708-.03-5.422.1-8.125-.1q-.435-.674-.834-1.369c1.327-.015,2.658-.021,3.985-.027.169-3.681.1-7.365.142-11.049C99.7,349.717,97.831,350.028,96.98,348.57Z" transform="translate(-96.98 -296.338)" fill="#fdfdfc"/>
      <path id="Path_59" data-name="Path 59" d="M138.95,348.573c2.85-.169,5.706-.047,8.556-.006a14.379,14.379,0,0,1-.151,7.5c-2.262-.053-4.524-.027-6.785-.041.018,1.62.062,3.237.071,4.858,2.445.077,4.9-.041,7.341.077,0,.452-.009.908-.018,1.363-2.9.124-5.8.03-8.7.08-.086-2.549.033-5.1.166-7.646a54.679,54.679,0,0,0,7.167-.157c.056-1.611.133-3.22.154-4.831-2.256-.133-4.524.038-6.773-.148A5.508,5.508,0,0,1,138.95,348.573Z" transform="translate(-126.541 -296.344)" fill="#fdfdfc"/>
      <path id="Path_60" data-name="Path 60" d="M180.43,348.717a45.94,45.94,0,0,1,9.062-.071,62.645,62.645,0,0,1-.192,6.747,17.7,17.7,0,0,1-.05,6.9c-2.188.092-4.379.124-6.567.071a3.193,3.193,0,0,1-1.363-.242,6.013,6.013,0,0,1-.766-1.233c2.534-.018,5.068-.006,7.6-.018.083-1.6.08-3.2.062-4.8-1.963-.248-4.6.745-5.91-1.254,1.733-.092,3.468-.1,5.2-.121,1.245-1.381.668-3.32.837-5C185.719,349.424,182.712,350.5,180.43,348.717Z" transform="translate(-155.758 -296.322)" fill="#fdfdfc"/>
      <path id="Path_62" data-name="Path 62" d="M408.188,361.552c.414-.334.837-.659,1.262-.982.488,2.513-1.981,3.959-3.645,5.292a45.12,45.12,0,0,1-.242,5.248c-1.171-.452-1.292-1.942-1.268-3.022.086-1.085-.047-2.2.136-3.27C405.624,363.668,406.916,362.619,408.188,361.552Z" transform="translate(-311.814 -304.855)" fill="#fdfdfc"/>
      <path id="Path_63" data-name="Path 63" d="M115.07,417.451a2.677,2.677,0,0,1,4.355-.4,2.425,2.425,0,0,1,.006,2.551c-.686,1.363-1.931,2.309-2.883,3.474,1.283.18,2.968-.352,3.888.819-1.7.115-3.412.127-5.118.1.018-.349.035-.695.053-1.041,1.259-1.375,2.962-2.59,3.35-4.526a1.113,1.113,0,0,0-1.014-1.357A16.974,16.974,0,0,0,115.07,417.451Z" transform="translate(-109.722 -343.976)" fill="#fdfdfc"/>
      <path id="Path_64" data-name="Path 64" d="M134.341,417.251c1.118-1.254,3.356-1.718,4.541-.316.781.878-.109,1.948-.565,2.744.482.8,1.31,1.632.967,2.643-.541,2.235-4.077,2.569-5.065.506,1.121.065,2.282.674,3.382.234.937-.591.47-1.857.381-2.75q-1.011-.075-2.016-.166c.778-.727,2.173-1.129,2.209-2.377C137.381,416.411,135.58,417.366,134.341,417.251Z" transform="translate(-123.21 -343.95)" fill="#fdfdfc"/>
      <path id="Path_65" data-name="Path 65" d="M153.46,420.989a13.225,13.225,0,0,1,4.606-5.269c.074,1.437.062,2.88.1,4.32.325.18.653.358.982.538-1.168.624-1.038,2.028-1.112,3.149l-.849-.012c0-.86-.009-1.724-.015-2.581-1.239-.035-2.478-.071-3.716-.145m1.206-.757q1.282,0,2.563,0c-.027-.958-.053-1.919-.074-2.88C156.3,418.286,155.456,419.238,154.666,420.232Z" transform="translate(-136.761 -343.699)" fill="#fdfdfc"/>
      <path id="Path_66" data-name="Path 66" d="M97.71,417.972c.875-.473,1.738-.958,2.6-1.452,0,2.217-.041,4.435.027,6.652a3.18,3.18,0,0,1,1.552,1,8.7,8.7,0,0,1-4.136-.16c.562-.287,1.215-.588,1.4-1.257a12.681,12.681,0,0,0-.047-4.16C98.629,418.4,98.165,418.193,97.71,417.972Z" transform="translate(-97.494 -344.263)" fill="#fdfdfc"/>
      <path id="Path_67" data-name="Path 67" d="M474.88,429.81a22.227,22.227,0,0,0,2.209,2.469c.038-.618.068-1.236.1-1.854.142-.059.426-.177.568-.234-.027,1.472.027,2.951-.124,4.42a16.344,16.344,0,0,1-2.037-3.072,20.919,20.919,0,0,1-.509,2.522C475.1,432.639,474.963,431.226,474.88,429.81Z" transform="translate(-361.181 -353.624)" fill="#fdfdfc"/>
      <path id="Path_68" data-name="Path 68" d="M485.81,429.951a9.476,9.476,0,0,1,4.405.118c.109.488.219.973.328,1.464.538,0,1.076.009,1.617.018.109-.645.219-1.289.352-1.928a14.359,14.359,0,0,1,.381,4.556l.724-.068c.544-1.508.8-3.107,1.33-4.621a5.882,5.882,0,0,1,2.38,1.842c.39-.514.789-1.017,1.189-1.526a9.845,9.845,0,0,1,3.817.239c-.863.225-1.733.438-2.578.724.556.834,1.6.792,2.472,1.02-.825.177-1.644.352-2.454.574.089,1.177,1.369,1.333,2.309,1.36.03.1.086.307.115.411a18.357,18.357,0,0,0-2.735-.024,9.684,9.684,0,0,0-.263-3.359c-.387-.346-.911.154-1.121.482a19.918,19.918,0,0,0-.813,3.175c-.352-1.472-.479-3.158-1.706-4.219-1,1.531-1.215,3.382-1.83,5.07a14.293,14.293,0,0,1-1.384-1.52,8.151,8.151,0,0,1-.077-1.676c-.624.024-1.242.05-1.86.077-.074.775-.142,1.552-.248,2.324a7.527,7.527,0,0,1-.3-4.3c-.553.053-1.277-.171-1.626.4-.65,1.053-.3,2.365-.343,3.533l-.609,0a11.422,11.422,0,0,0-.127-3.146c-.172-.618-.822-.81-1.351-1Z" transform="translate(-368.695 -353.398)" fill="#fdfdfc"/>
      <path id="Path_69" data-name="Path 69" d="M545.235,429.67a6.769,6.769,0,0,1,.825,2.061,4.79,4.79,0,0,0-1.809-.109A12.975,12.975,0,0,0,545.235,429.67Z" transform="translate(-409.691 -353.525)" fill="#fdfdfc"/>
      <path id="Path_70" data-name="Path 70" d="M445.29,431.577c.174-.52,1.061-.216.9.3A.5.5,0,0,1,445.29,431.577Z" transform="translate(-340.509 -354.678)" fill="#fdfdfc"/>
      <path id="Path_71" data-name="Path 71" d="M554.67,434.51c.118-1.41.05-2.832.225-4.24.8.074,1.6.139,2.407.2a10,10,0,0,1-.343,2.643c.325.55.647,1.1.943,1.67-.869-.618-1.667-1.322-2.5-1.984.006.571.015,1.141.027,1.715l-.76-.009m.946-3.214c.027.254.077.76.1,1.014.414-.207.917-.378.908-.934Z" transform="translate(-416.961 -353.948)" fill="#fdfdfc"/>
      <path id="Path_72" data-name="Path 72" d="M541.75,438.285a5.9,5.9,0,0,1,1.3-1.945c-.006.278-.018.837-.027,1.115.476-.287.949-.579,1.422-.872.364.736.73,1.469,1.061,2.223-.875.041-1.366-.757-1.957-1.257a10.936,10.936,0,0,0-1.452,1.209c-.118-.157-.237-.316-.349-.473Z" transform="translate(-407.923 -358.223)" fill="#fdfdfc"/>
      <path id="Path_73" data-name="Path 73" d="M331.46,453.87a19.48,19.48,0,0,1,1.458,3.385,18.694,18.694,0,0,1,1.88-3.305,34.613,34.613,0,0,1-1.582,4.662c-.387.024-.432-.435-.6-.68A11.55,11.55,0,0,1,331.46,453.87Z" transform="translate(-260.91 -370.57)" fill="#fdfdfc"/>
      <path id="Path_74" data-name="Path 74" d="M373.4,454.55c1.115.142,2.5.213,3.14,1.3a2.254,2.254,0,0,1-.476,2.537,4.536,4.536,0,0,1-2.67.754c-.009-1.531-.03-3.06.006-4.589m.627.364q-.049,1.894-.012,3.793a1.913,1.913,0,0,0,2-1.662A2.006,2.006,0,0,0,374.029,454.914Z" transform="translate(-290.218 -371.049)" fill="#fdfdfc"/>
      <path id="Path_75" data-name="Path 75" d="M428.806,453.965c1.248,0,2.5-.033,3.752.012-.041,3.465.142,6.924.145,10.389.585-.074,1.292-.151,1.611-.73.506-1.017.222-2.2.245-3.285.343-.018.686-.033,1.032-.044-.012,1.5-.05,3.013-.047,4.518-2.383-.174-5.127.979-7.184-.718,1.064-.083,2.138-.092,3.208-.089.169-2.971.18-5.952.228-8.929-.973-.047-1.942-.077-2.915-.08-.027-.349-.053-.7-.074-1.044Z" transform="translate(-328.624 -370.629)" fill="#fdfdfc"/>
      <path id="Path_76" data-name="Path 76" d="M499.892,457.689c.872-1.455,1.54-3.169,3.057-4.089a39.775,39.775,0,0,1-6.629,11.327c.4-2.741,2.294-4.875,3.572-7.238Z" transform="translate(-376.136 -370.38)" fill="#fdfdfc"/>
      <path id="Path_77" data-name="Path 77" d="M343.639,455.08c.293.237,1.171.183,1.005.683-.441.272-.919.473-1.381.7.237.414.476.831.713,1.251.337-.435.683-.86,1.044-1.274a5.486,5.486,0,0,0,.937,2.664c-.754-.373-1.508-.748-2.277-1.088q-.767.745-1.57,1.455A44.05,44.05,0,0,1,343.639,455.08Z" transform="translate(-268.352 -371.423)" fill="#fdfdfc"/>
      <path id="Path_78" data-name="Path 78" d="M355.28,458.557a21.7,21.7,0,0,1,.331-4.337,11.4,11.4,0,0,1,.349,3.9q1.472.146,2.954.192c-.109-1.3-.3-2.59-.514-3.873l1.153,0a17.045,17.045,0,0,0,.018,4.373c-1.434-.027-2.865-.1-4.29-.254Z" transform="translate(-277.557 -370.817)" fill="#fdfdfc"/>
      <path id="Path_79" data-name="Path 79" d="M461.61,454.913a49.6,49.6,0,0,1,7.17.065,26.978,26.978,0,0,1-.254,5.674c-1.839-.006-3.675.071-5.514.062-.05,1.348-.08,2.7-.1,4.045,1.984.166,4.175-.52,5.987.568-2.288.142-4.58.186-6.871.183a35.962,35.962,0,0,1,.1-5.783,32.318,32.318,0,0,1,5.585-.018c.089-1.369.077-2.741.1-4.11-2.067-.121-4.408.713-6.206-.686Z" transform="translate(-351.867 -371.232)" fill="#fdfdfc"/>
      <path id="Path_80" data-name="Path 80" d="M529.5,459.318c-.009-1.555-.021-3.113.006-4.668,2.161.033,4.323.065,6.487.015a52.276,52.276,0,0,1-.08,8.766,27.7,27.7,0,0,1-.834-4.077c-1.86,0-3.719.006-5.579-.035m.816-3.755c.044.911.074,1.821.095,2.735,1.567-.006,3.134.018,4.7-.018.053-.914.109-1.827.154-2.741C533.611,455.528,531.961,455.555,530.311,455.564Z" transform="translate(-399.32 -371.12)" fill="#fdfdfc"/>
      <path id="Path_81" data-name="Path 81" d="M562.795,454.585c2.146,0,4.293.059,6.439-.015a71.1,71.1,0,0,1,.038,7.737c-.3-.881-.544-1.774-.8-2.664l-.047-.169c-1.872-.213-3.755-.174-5.635-.222-.009-1.555-.033-3.113,0-4.668m.816.934c.038.9.086,1.806.136,2.711,1.552,0,3.1.012,4.657,0,.035-.9.083-1.806.154-2.708Q566.083,455.51,563.611,455.519Z" transform="translate(-422.592 -371.063)" fill="#fdfdfc"/>
      <path id="Path_82" data-name="Path 82" d="M330.95,473.085c1.014-.083,2.031-.163,3.045-.275-1.478,1.1-.819,3.081-1.378,4.6-.166-1.313-.192-2.631-.251-3.947-.476-.13-.946-.248-1.416-.375Z" transform="translate(-260.555 -383.911)" fill="#fdfdfc"/>
      <path id="Path_83" data-name="Path 83" d="M374.187,473.229l.636,0c-.077,1.3.237,2.767-.532,3.923a3.6,3.6,0,0,1-2.4-.169,24.582,24.582,0,0,1-.316-3.811l.7.142a13.758,13.758,0,0,0,.192,3.164c.257.609.952.441,1.469.378A27.052,27.052,0,0,0,374.187,473.229Z" transform="translate(-288.952 -384.164)" fill="#fdfdfc"/>
      <path id="Path_84" data-name="Path 84" d="M100.29,537.34a6.082,6.082,0,0,1,6.439-1.369c1.144.257,1.079,1.644,1.227,2.549-1.147-.606-2.244-1.49-3.6-1.5-1.112.024-1.937.878-2.744,1.534C101.171,538.15,100.731,537.742,100.29,537.34Z" transform="translate(-99.311 -428.097)" fill="#fdfdfc"/>
      <path id="Path_85" data-name="Path 85" d="M138.217,536.22q.936.044,1.874.086c.467,1.339.931,2.676,1.431,4q-.807.217-1.611.438c-.213-.789-.435-1.576-.674-2.356-.21.464-.423.931-.6,1.413-.358.059-.715.118-1.07.18-.059-.4-.109-.786-.154-1.18A19.812,19.812,0,0,1,138.217,536.22Z" transform="translate(-125.457 -428.573)" fill="#fdfdfc"/>
      <path id="Path_86" data-name="Path 86" d="M163.868,536.335c1.662.071,3.391-.266,5,.3a2.8,2.8,0,0,1,1.931,2.8,8.968,8.968,0,0,1-1.756,3.645c-.42-.455-.857-.893-1.3-1.328-.378.254-.76.509-1.138.766l.2.358-.946.186c-.121-.027-.361-.08-.479-.109.216-.931,1.191-1.159,1.928-1.534q.612-.031,1.224-.053c.293-.99.523-2,.715-3.007-1.224-.263-2.451-.517-3.684-.73a6.871,6.871,0,0,1-.9,2.927c-.378.405-.3,1.085-.7,1.455-.041,0-.127,0-.169,0,.494-1.815-.062-3.787.068-5.671Z" transform="translate(-144.044 -428.629)" fill="#fdfdfc"/>
      <path id="Path_87" data-name="Path 87" d="M197.14,536.359c2.371.027,5.141-.39,7.051,1.354,1.7,1.422,1.812,3.861,1.407,5.881l-.248.772c-.307-.411-.612-.822-.9-1.248-.367-1.443-.3-3.134-1.4-4.266-1.135-1.005-2.761-.937-4.169-1.174a62.844,62.844,0,0,0,.1,7c-.562-.494-1.126-.982-1.7-1.449-.095-2.288,0-4.583-.136-6.871Z" transform="translate(-167.527 -428.653)" fill="#fdfdfc"/>
      <path id="Path_88" data-name="Path 88" d="M233.42,536.279l1.605.027c.065,1.4.015,2.8.053,4.2,1.526-.015,3.054.03,4.58.027,0-1.4.006-2.806-.006-4.21.579-.021,1.162-.035,1.747-.05.074,3.533-.062,7.069.127,10.6-.582.041-1.165.089-1.744.145-.08-1.673.018-3.347-.08-5.017-1.54.015-3.081.027-4.618-.012-.1,1.712.012,3.427-.068,5.136-.1.068-.3.2-.4.269-.142-1.1-.16-2.214-.3-3.314-.213,1.141-.142,2.309-.263,3.462C232.959,543.883,233.6,540.028,233.42,536.279Z" transform="translate(-192.335 -428.608)" fill="#fdfdfc"/>
      <path id="Path_89" data-name="Path 89" d="M268.475,537.208a4.831,4.831,0,0,1,7.687.482c1.292,2.149.872,4.793.29,7.1-.42-.446-.837-.9-1.254-1.339.015-1.765.367-3.743-.7-5.289a2.925,2.925,0,0,0-4.683.1c-.875,1.339-.713,3.019-.769,4.544q-.687.679-1.378,1.366C267.245,541.871,266.984,539.2,268.475,537.208Z" transform="translate(-216.056 -428.086)" fill="#fdfdfc"/>
      <path id="Path_90" data-name="Path 90" d="M306.86,535.65c.565.142,1.129.3,1.691.464.139,3.039.015,6.082.08,9.121L308,545c-1.029-2.764-.781-5.771-1.1-8.66C306.892,536.17,306.872,535.822,306.86,535.65Z" transform="translate(-243.719 -428.172)" fill="#fdfdfc"/>
      <path id="Path_91" data-name="Path 91" d="M333.96,536.253c2.138.056,4.479-.29,6.4.869,3.113,2.022,3.134,7.3.009,9.319-1.931,1.144-4.272.783-6.407.754.006-3.648-.03-7.294-.006-10.942m1.736,1.487c-.027,2.688.041,5.378.047,8.065a10.54,10.54,0,0,0,3.465-.553c2.478-1.469,2.377-5.718-.192-7.04A10.832,10.832,0,0,0,335.7,537.74Z" transform="translate(-262.622 -428.591)" fill="#fdfdfc"/>
      <path id="Path_92" data-name="Path 92" d="M370.08,536.334c2.306-.012,4.615-.024,6.921-.018.047.514.095,1.032.139,1.549-1.765-.035-3.53-.015-5.3-.015-.015.89-.018,1.777.006,2.67,1.611-.009,3.22.053,4.834.056.018.491.035.982.056,1.475-1.626.015-3.252-.015-4.875-.027-.024,1.239-.033,2.481-.071,3.722,1.733.027,3.468-.041,5.2.071.006.5.018,1,.03,1.5q-3.415-.009-6.827,0C370.148,543.651,370.257,539.991,370.08,536.334Z" transform="translate(-287.886 -428.64)" fill="#fdfdfc"/>
      <path id="Path_93" data-name="Path 93" d="M400.415,536.226a25.553,25.553,0,0,1,4.612.18,2.964,2.964,0,0,1,2.4,2.705c.092,1.5-.985,2.711-2.043,3.631,1.307,1.508,2.593,3.036,3.761,4.66a3.474,3.474,0,0,1-2.173-.5c-1.777-1.227-2.522-3.625-4.671-4.376-.118,1.579-.127,3.166-.171,4.751-.559-.033-1.118-.068-1.673-.1-.08-3.651-.021-7.3-.041-10.951m1.792,1.44c.009,1.322,0,2.643.015,3.965a8.955,8.955,0,0,0,2.673-.6,1.724,1.724,0,0,0-.018-2.945A7.222,7.222,0,0,0,402.207,537.666Z" transform="translate(-309.078 -428.567)" fill="#fdfdfc"/>
    </g>
    <g id="_c6c6c6ff" data-name="#c6c6c6ff" transform="translate(29.447 58.174)">
      <path id="Path_94" data-name="Path 94" d="M229.3,187.07c.671,2.986.319,6.073.346,9.1-3.9.071-7.8.189-11.693.071-.006-.517-.009-1.035-.015-1.549,1.886-1.851,3.855-3.622,5.7-5.52l-1.357-1.2c2.321-.26,4.662-.151,6.983-.375C229.272,187.469,229.293,187.2,229.3,187.07Z" transform="translate(-182.247 -187.07)" fill="#c6c6c6"/>
      <path id="Path_95" data-name="Path 95" d="M206.288,219.55c4.657.018,9.313.1,13.97.118.041,2.608.038,5.218.03,7.826q-6.679.044-13.352.136a21.652,21.652,0,0,1-2.232-3.5C204.638,222.453,205.688,221.043,206.288,219.55Z" transform="translate(-172.922 -209.947)" fill="#c6c6c6"/>
      <path id="Path_96" data-name="Path 96" d="M165.933,235.9c2.117-2.365,4.689-4.246,7.013-6.386a18.045,18.045,0,0,1,.059,2.226c3.025,3.152,2.084,8.864-1.591,11.1a9.2,9.2,0,0,1-11-1.478C162.548,239.864,164.118,237.735,165.933,235.9Z" transform="translate(-141.726 -216.962)" fill="#c6c6c6"/>
      <path id="Path_97" data-name="Path 97" d="M202.982,254.488a21.359,21.359,0,0,0,.849-4.828c4.393.3,8.8.237,13.2.242-.03,2.418-.018,4.834.009,7.252-3.4.151-6.812.074-10.218.1-2.3.012-4.506.757-6.776,1.023,1.061-1.191,2.362-2.256,2.942-3.79Z" transform="translate(-169.64 -231.155)" fill="#c6c6c6"/>
      <path id="Path_98" data-name="Path 98" d="M186.52,280.276a32.542,32.542,0,0,0,8.148-.408c4.249-.523,8.539-.1,12.8-.237-.789,2.519-2.957,4.852-5.736,4.92-5.008.041-10.026.166-15.031-.08A40.61,40.61,0,0,1,186.52,280.276Z" transform="translate(-160.117 -252.242)" fill="#c6c6c6"/>
      <path id="Path_99" data-name="Path 99" d="M136.12,284.222c1.064-1.969,3.574-1.954,5.177-3.282,2.442.225,4.9.174,7.35.272-.015,1.431-.059,2.865-.056,4.3-3.311-.035-6.658.432-9.94-.16C137.79,285.011,136.957,284.606,136.12,284.222Z" transform="translate(-124.618 -253.187)" fill="#c6c6c6"/>
      <path id="Path_100" data-name="Path 100" d="M391.07,347.35c3.033.059,6.064.083,9.1.024.056,1.295.021,2.59-.03,3.885-.426.322-.849.647-1.262.982-.127-1.064-.254-2.126-.37-3.187-2.164.186-4.9-.854-6.5,1.135A7.3,7.3,0,0,1,391.07,347.35Z" transform="translate(-304.19 -299.962)" fill="#fdfdfc"/>
      <path id="Path_101" data-name="Path 101" d="M774.273,348.516l.541-.186c-.027,2.726-.1,5.455-.186,8.181,1.375-.095,2.962.2,4.077-.813l.2.024.461.062c.086-.237.172-.47.257-.707.109.757,1.342,1.526.63,2.22-.2.228-.405.455-.612.68.044,1.534.1,3.072,0,4.606-1.5-1.381.053-3.746-1.316-5.215a42.585,42.585,0,0,0-4.991-.024c.006-.878.015-1.753.062-2.628C774.746,352.939,774.439,350.592,774.273,348.516Z" transform="translate(-573.433 -300.653)" fill="#fff"/>
      <path id="Path_103" data-name="Path 103" d="M823.522,358.21a11.869,11.869,0,0,1,.467,2.271c.275-.2.553-.393.834-.588q-.075.851-.163,1.7l-.24.1c-.659.275-1.31.568-1.969.834a10.665,10.665,0,0,1-4.071.334q-.213-.705-.411-1.4c1.626.068,3.255.154,4.884.186C823.132,360.51,823.236,359.342,823.522,358.21Z" transform="translate(-601.875 -306.611)" fill="#fff"/>
      <path id="Path_104" data-name="Path 104" d="M448.426,431.222c.689-.562,1.36-1.6,2.392-1.259,2.09.473,2.173,3.879.231,4.627-1.106.47-1.925-.659-2.764-1.18-.322.455-.645.911-.973,1.357-.089-.837-.157-1.673-.242-2.51a8.6,8.6,0,0,0-1.126,1.192,7.607,7.607,0,0,0-.9-1.236c-.1.878-.16,1.759-.263,2.634a4.277,4.277,0,0,1-.39-4.263.5.5,0,0,0,.9.3c.3.257.479.834.961.7.414-.517.745-1.141,1.422-1.351q.373.492.754.985m.964-.307c.035,1.091-.127,2.356.792,3.161,1.419-.373,1.23-1.966,1.292-3.1A19.631,19.631,0,0,0,449.39,430.915Z" transform="translate(-341.478 -358.104)" fill="#fdfdfc"/>
      <path id="Path_105" data-name="Path 105" d="M388.909,465.86c1.679.636,3.359,1.268,5.008,1.975-.015.065-.041.2-.053.26-1.608.781-3.291,1.41-4.961,2.046Q388.894,468,388.909,465.86Z" transform="translate(-299.966 -383.818)" fill="#fdfdfc"/>
      <path id="Path_106" data-name="Path 106" d="M349.52,473.9a10.487,10.487,0,0,0,1.795-2.073q.089,2.284.095,4.568l-.775-.047A3.193,3.193,0,0,0,349.52,473.9Z" transform="translate(-274.925 -387.639)" fill="#fdfdfc"/>
      <path id="Path_107" data-name="Path 107" d="M344.077,476.389c0-1.537-.189-3.158.509-4.589.473.919,1.126,1.845.914,2.939l-.316-.062q-.146.829-.278,1.667Z" transform="translate(-271.076 -387.618)" fill="#fff"/>
      <path id="Path_108" data-name="Path 108" d="M358.29,472.752c.84-.018,1.682-.018,2.522.015.216.417.438.831.659,1.248q-.368.6-.742,1.209c.334.707.674,1.416.993,2.135-.783-.544-1.52-1.147-2.253-1.756a18.924,18.924,0,0,1-.961,1.747,41.192,41.192,0,0,1-.219-4.6m.852.713c-.012.378-.024.76-.03,1.141l1.153-.018c0-.384-.006-.766-.009-1.147C359.884,473.447,359.511,473.452,359.142,473.464Z" transform="translate(-281.102 -388.28)" fill="#fdfdfc"/>
      <path id="Path_109" data-name="Path 109" d="M306.28,548.489c.009-3.5-.115-7.01.2-10.5.322,2.889.074,5.9,1.1,8.66l.627.234c1.614.015,3.232-.015,4.849,0q-.018.865-.027,1.733C310.78,548.61,308.527,548.586,306.28,548.489Z" transform="translate(-244.457 -434.238)" fill="#c6c6c6"/>
      <path id="Path_110" data-name="Path 110" d="M164.6,543.717a6.871,6.871,0,0,0,.9-2.927q.049,1.894.083,3.784c.553,0,1.109.009,1.662.006-.736.375-1.712.6-1.928,1.534.118.03.358.083.479.109l.275.169-.47.3a30.482,30.482,0,0,1-.139,3.888,3.032,3.032,0,0,1-1.644-.225,35.085,35.085,0,0,1-.021-5.109l.1-.074c.4-.37.322-1.05.7-1.455Z" transform="translate(-144.049 -436.211)" fill="#c6c6c6"/>
      <path id="Path_111" data-name="Path 111" d="M97.853,548.734a8.743,8.743,0,0,1,.272-7.114c.441.4.881.81,1.322,1.215-.068,1.747-.7,3.643.2,5.28a2.866,2.866,0,0,0,3.087,1.537c1.055-.242,1.9-1.047,3-1.162.035.411.068.828.1,1.242q.483-.049.967-.089a31.1,31.1,0,0,1,2.291-7.037c.044.393.095.783.154,1.18.355-.062.713-.121,1.07-.18-.3.967-.517,1.951-.769,2.93l2.575.027c-.177-.671-.352-1.342-.529-2.013q.8-.222,1.611-.438c.9,2.371,1.682,4.787,2.41,7.214a5.782,5.782,0,0,1-1.851-.452,15.721,15.721,0,0,1-1.058-2.546c-1.236-.056-2.469-.13-3.7-.112-.387,1.032-.813,2.046-1.221,3.072-.461-.068-.925-.13-1.387-.192-.275-.349-.547-.7-.819-1.05C103.476,552.462,99.113,551.592,97.853,548.734Z" transform="translate(-97.216 -436.795)" fill="#c6c6c6"/>
      <path id="Path_112" data-name="Path 112" d="M173.29,555.506c.378-.257.76-.511,1.138-.766.441.435.878.872,1.3,1.328a31.58,31.58,0,0,1,3.6,4.343q-1.113,0-2.226-.009a50.512,50.512,0,0,1-3.6-4.538Z" transform="translate(-150.798 -446.036)" fill="#c6c6c6"/>
      <path id="Path_113" data-name="Path 113" d="M197.177,559.392c.577.467,1.141.955,1.7,1.449.059.458.142.911.225,1.366a7.973,7.973,0,0,0,5.251-2.927c.284.426.588.837.9,1.248l.248-.772c.13,1.428-1.053,2.486-2.212,3.075-1.945.97-4.184.825-6.289.736.015-1.393.115-2.785.177-4.175Z" transform="translate(-167.498 -449.234)" fill="#c6c6c6"/>
      <path id="Path_114" data-name="Path 114" d="M268.27,561.516q.692-.687,1.378-1.366c.748,1.044,1.44,2.569,2.93,2.587,1.384.1,2.321-1.085,3.22-1.945.417.443.834.893,1.254,1.339l.092.1c-1.106,1.044-2.315,2.271-3.95,2.271-2.105.231-3.935-1.221-5-2.906Z" transform="translate(-217.641 -449.847)" fill="#c6c6c6"/>
    </g>
    <g id="_788ba6ff" data-name="#788ba6ff" transform="translate(157.899 105.509)">
      <path id="Path_116" data-name="Path 116" d="M861.435,364.732c.393-.281.786-.568,1.183-.852-.071,1.1-.174,2.191-.34,3.276-2.327.053-4.657-.053-6.98.059.062,1.5-.035,3.01.1,4.509,2.28.018,4.562.027,6.841,0q.3.794.588,1.588c-2.918.03-5.836.006-8.754.012-.065-2.664-.021-5.331.012-7.995C856.51,365.083,859.256,366.269,861.435,364.732Z" transform="translate(-754.683 -358.94)" fill="#fff"/>
      <path id="Path_117" data-name="Path 117" d="M818.184,370.834c.659-.266,1.31-.559,1.969-.834a15.025,15.025,0,0,1,.059,7.646c-2.673-.006-5.345-.018-8.018,0-.115-.577-.207-1.159-.284-1.741a32.558,32.558,0,0,0,7.078-.018A6,6,0,0,0,818.184,370.834Z" transform="translate(-725.011 -363.251)" fill="#fff"/>
      <path id="Path_118" data-name="Path 118" d="M568.539,370.99a15.489,15.489,0,0,1-.2,7.051c-2.333.6-4.772.281-7.146.2-1.18-.121-1.18-1.585-1.327-2.475.429-.219.863-.438,1.295-.653.092.562.219,1.118.343,1.679,1.756.018,3.512,0,5.272.024a46.056,46.056,0,0,0,.086-4.7,27.33,27.33,0,0,1-4.692-.183c1.7-.166,3.4-.027,5.094-.05.08.846.139,1.694.275,2.537l.739,0A30.425,30.425,0,0,0,568.539,370.99Z" transform="translate(-548.529 -363.953)" fill="#fdfdfc"/>
      <path id="Path_119" data-name="Path 119" d="M734.964,374.331l.517-.591a25.391,25.391,0,0,1-.358,6.5c-2.155-.074-4.385.367-6.478-.31a3.781,3.781,0,0,1-2.336-2.149c2.386.479,4.831,1.434,7.291.8.713-1.342.225-2.965.322-4.423C734.269,374.213,734.615,374.272,734.964,374.331Z" transform="translate(-664.719 -365.885)" fill="#fdfdfc"/>
      <path id="Path_120" data-name="Path 120" d="M614.629,379.586a14.568,14.568,0,0,1,1.431-1.836c.033,1.7-.095,3.394-.059,5.094-.479.109-.961.21-1.44.313A11.667,11.667,0,0,1,614.629,379.586Z" transform="translate(-585.936 -368.71)" fill="#fff"/>
      <path id="Path_121" data-name="Path 121" d="M650.9,377.732c.177-.03.526-.089.7-.115l.686-.106a37.255,37.255,0,0,1-.021,5.419c-2.569-.044-5.141.1-7.7-.074-.579.03-.863-.6-.979-1.067a10.931,10.931,0,0,1,.18-3.208c.446-.207.89-.417,1.342-.624-.03,1.129-.027,2.262,0,3.391,1.978.044,3.953-.053,5.925-.157Q650.936,379.461,650.9,377.732Z" transform="translate(-607.403 -368.556)" fill="#fff"/>
    </g>
    <rect id="Rectangle_15" data-name="Rectangle 15" width="66" height="23" transform="translate(141.429 20.79)" fill="#95a4b4"/>
    <text id="Cyber_Card" data-name="Cyber Card" transform="translate(119 43.79)" fill="#fff" font-size="28" font-family="SegoeScript, Segoe Script"><tspan x="0" y="0">Cyber Card</tspan></text>
    <rect id="Rectangle_16" data-name="Rectangle 16" width="102" height="14" transform="translate(29 159.79)" fill="#95a4b4"/>
    <text id="_0x48cec6d7163201f0158c1e96fe1abe" data-name="0x48cec6d7163201f0158c1e96fe1abe" transform="translate(15 176.79)" fill="#fff" font-size="12" font-family="SegoeScript, Segoe Script"><tspan x="0" y="0">0x48cec6d7163201f0158c1e96fe1abe</tspan></text>
  </g>
</svg>
