<svg xmlns="http://www.w3.org/2000/svg" width="80" height="80" viewBox="0 0 80 80">
  <g id="Group_63" data-name="Group 63" transform="translate(4190 -8677)">
    <g id="Group_62" data-name="Group 62" transform="translate(-98 -92)">
      <g id="Group_59" data-name="Group 59">
        <path id="Path_5" data-name="Path 5" d="M40,0A40,40,0,1,1,0,40,40,40,0,0,1,40,0Z" transform="translate(-4092 8769)" fill="#95a4b4"/>
      </g>
    </g>
    <g id="burn-svgrepo-com" transform="translate(-4272.83 8831)">
      <g id="Group_60" data-name="Group 60" transform="translate(110.46 -134)">
        <path id="Path_257" data-name="Path 257" d="M48,26.025a18.941,18.941,0,0,0-1.414-5.592A21.867,21.867,0,0,0,43.9,15.76c-.307-.411-.619-.8-.781-.986l-.371-.442c-.091-.113-.167-.2-.242-.285l-.111-.123c-.121-.133-.247-.271-.35-.409-.008-.011-.017-.022-.026-.033-.05-.06-.1-.121-.165-.188A3.627,3.627,0,0,1,41.6,13l-.031-.041c-.566-.678-1.042-1.294-1.455-1.883a12.751,12.751,0,0,1-1.108-1.864,9.092,9.092,0,0,1-.73-2.258,15.021,15.021,0,0,1-.257-2.534c-.023-.835.024-1.637.072-2.307.035-.446.074-.84.113-1.188A.867.867,0,0,0,37.949.2a.711.711,0,0,0-.691-.177,8.078,8.078,0,0,0-1.1.4A9.858,9.858,0,0,0,33.9,1.85a11.279,11.279,0,0,0-2.411,2.81A12.9,12.9,0,0,0,29.8,9.221a15.756,15.756,0,0,0,.1,5.727,18.35,18.35,0,0,0,2.035,5.4,19.575,19.575,0,0,0,1.49,2.259c.145.2.544.7.548.71l.159.2c.112.138.191.241.272.347s.137.178.206.258l.012.013c.759.989,1.293,1.715,1.735,2.357.488.707.917,1.392,1.311,2.094a12.318,12.318,0,0,1,.944,2.061,10.419,10.419,0,0,1,.5,2.4,15.541,15.541,0,0,1,0,2.563c-.07.883-.2,1.689-.3,2.278-.074.4-.147.776-.214,1.1a.878.878,0,0,0,.2.758A.727.727,0,0,0,39.34,40a.718.718,0,0,0,.145-.015,7.463,7.463,0,0,0,1.039-.3,9.784,9.784,0,0,0,2.322-1.212,11.09,11.09,0,0,0,2.6-2.543,13.207,13.207,0,0,0,2.07-4.287A15.73,15.73,0,0,0,48,26.025Z" transform="translate(-23.327 0)" fill="#fff"/>
        <path id="Path_258" data-name="Path 258" d="M29.97,65.565a13.343,13.343,0,0,0-1.819-2.9c-.186-.228-.41-.489-.52-.6l-.259-.284c-.068-.076-.116-.129-.168-.181l-.071-.071c-.082-.082-.164-.166-.234-.249-.012-.015-.025-.03-.039-.044l-.1-.1c-.057-.059-.113-.115-.16-.175-.012-.015-.025-.03-.039-.045-.371-.407-.69-.785-.97-1.152a8.135,8.135,0,0,1-.756-1.166,5.347,5.347,0,0,1-.494-1.4,8.649,8.649,0,0,1-.173-1.572,12.427,12.427,0,0,1,.035-1.244,1.125,1.125,0,0,0-1.606-1.1,7.085,7.085,0,0,0-1.217.744,7.215,7.215,0,0,0-1.63,1.744,7.6,7.6,0,0,0-1.145,2.83,9,9,0,0,0,.065,3.56,10.849,10.849,0,0,0,1.381,3.364,12.222,12.222,0,0,0,1,1.391c.094.116.3.352.388.457l0,0,.1.114c.079.089.135.156.19.222s.088.106.125.145l.017.019c.347.415.794.956,1.176,1.467.332.44.622.866.887,1.3a7.279,7.279,0,0,1,.637,1.276,6.036,6.036,0,0,1,.336,1.5,8.867,8.867,0,0,1,0,1.584c-.03.355-.08.73-.151,1.145a1.125,1.125,0,0,0,1.531,1.232,7.061,7.061,0,0,0,1.145-.6A7.248,7.248,0,0,0,29.2,75.191a7.943,7.943,0,0,0,1.4-2.662,9.147,9.147,0,0,0,.328-3.491A11.029,11.029,0,0,0,29.97,65.565Z" transform="translate(-18.46 -37.693)" fill="#fff"/>
      </g>
    </g>
  </g>
</svg>
