<svg id="tax" xmlns="http://www.w3.org/2000/svg" width="80" height="80" viewBox="0 0 80 80">
  <path id="Path_5" data-name="Path 5" d="M40,0A40,40,0,1,1,0,40,40,40,0,0,1,40,0Z" fill="#95a4b4"/>
  <g id="tax-svgrepo-com" transform="translate(-38.851 15.211)">
    <g id="Group_10" data-name="Group 10" transform="translate(59.858)">
      <g id="Group_9" data-name="Group 9" transform="translate(0)">
        <path id="Path_239" data-name="Path 239" d="M95.411,0H62.29a2.435,2.435,0,0,0-2.432,2.432V47.145a2.435,2.435,0,0,0,2.432,2.432H87.959a.776.776,0,0,0,.549-.227l9.108-9.108a.776.776,0,0,0,.227-.549V2.432A2.435,2.435,0,0,0,95.411,0ZM88.735,46.927V41.349a.881.881,0,0,1,.88-.88h5.578Zm7.556-8.01H89.615a2.435,2.435,0,0,0-2.432,2.432v6.676H62.29a.881.881,0,0,1-.88-.88V2.432a.881.881,0,0,1,.88-.88h33.12a.881.881,0,0,1,.88.88V38.916Z" transform="translate(-59.858)" fill="#fff"/>
      </g>
    </g>
    <g id="Group_12" data-name="Group 12" transform="translate(66.482 6.624)">
      <g id="Group_11" data-name="Group 11" transform="translate(0)">
        <path id="Path_240" data-name="Path 240" d="M135.667,68.409h-6.624a.776.776,0,1,0,0,1.553h2.536v7.5a.776.776,0,0,0,1.553,0v-7.5h2.536a.776.776,0,1,0,0-1.553Z" transform="translate(-128.267 -68.409)" fill="#fff"/>
      </g>
    </g>
    <g id="Group_14" data-name="Group 14" transform="translate(73.934 6.624)">
      <g id="Group_13" data-name="Group 13" transform="translate(0)">
        <path id="Path_241" data-name="Path 241" d="M213.368,77.242l-2.307-7.69a1.594,1.594,0,0,0-1.537-1.143H209.1a1.594,1.594,0,0,0-1.537,1.143l-2.307,7.69a.776.776,0,0,0,1.487.446l.331-1.1h4.475l.331,1.1a.776.776,0,0,0,1.487-.446Zm-5.828-2.209L209.051,70a.052.052,0,0,1,.05-.037h.424a.052.052,0,0,1,.05.037l1.51,5.035Z" transform="translate(-205.224 -68.409)" fill="#fff"/>
      </g>
    </g>
    <g id="Group_16" data-name="Group 16" transform="translate(83.042 6.624)">
      <g id="Group_15" data-name="Group 15" transform="translate(0)">
        <path id="Path_242" data-name="Path 242" d="M306.5,77.02l-2.587-3.695L306.5,69.63a.776.776,0,0,0-1.272-.89l-2.262,3.232L300.7,68.74a.776.776,0,0,0-1.272.89l2.587,3.695-2.586,3.695a.776.776,0,1,0,1.272.89l2.262-3.232,2.262,3.232a.776.776,0,1,0,1.272-.89Z" transform="translate(-299.287 -68.408)" fill="#fff"/>
      </g>
    </g>
    <g id="Group_18" data-name="Group 18" transform="translate(64.826 20.7)">
      <g id="Group_17" data-name="Group 17" transform="translate(0)">
        <path id="Path_243" data-name="Path 243" d="M113.6,213.779h-1.656a.776.776,0,0,0,0,1.553H113.6a.776.776,0,1,0,0-1.553Z" transform="translate(-111.165 -213.779)" fill="#fff"/>
      </g>
    </g>
    <g id="Group_20" data-name="Group 20" transform="translate(64.826 24.012)">
      <g id="Group_19" data-name="Group 19" transform="translate(0)">
        <path id="Path_244" data-name="Path 244" d="M113.6,247.983h-1.656a.776.776,0,0,0,0,1.553H113.6a.776.776,0,1,0,0-1.553Z" transform="translate(-111.165 -247.983)" fill="#fff"/>
      </g>
    </g>
    <g id="Group_22" data-name="Group 22" transform="translate(64.826 27.324)">
      <g id="Group_21" data-name="Group 21" transform="translate(0)">
        <path id="Path_245" data-name="Path 245" d="M113.6,282.188h-1.656a.776.776,0,0,0,0,1.553H113.6a.776.776,0,1,0,0-1.553Z" transform="translate(-111.165 -282.188)" fill="#fff"/>
      </g>
    </g>
    <g id="Group_24" data-name="Group 24" transform="translate(89.666 20.7)">
      <g id="Group_23" data-name="Group 23">
        <path id="Path_246" data-name="Path 246" d="M370.131,213.779h-1.656a.776.776,0,1,0,0,1.553h1.656a.776.776,0,1,0,0-1.553Z" transform="translate(-367.699 -213.779)" fill="#fff"/>
      </g>
    </g>
    <g id="Group_26" data-name="Group 26" transform="translate(89.666 24.012)">
      <g id="Group_25" data-name="Group 25">
        <path id="Path_247" data-name="Path 247" d="M370.131,247.983h-1.656a.776.776,0,1,0,0,1.553h1.656a.776.776,0,1,0,0-1.553Z" transform="translate(-367.699 -247.983)" fill="#fff"/>
      </g>
    </g>
    <g id="Group_28" data-name="Group 28" transform="translate(89.666 27.324)">
      <g id="Group_27" data-name="Group 27">
        <path id="Path_248" data-name="Path 248" d="M370.131,282.188h-1.656a.776.776,0,1,0,0,1.553h1.656a.776.776,0,1,0,0-1.553Z" transform="translate(-367.699 -282.188)" fill="#fff"/>
      </g>
    </g>
    <g id="Group_30" data-name="Group 30" transform="translate(69.794 20.7)">
      <g id="Group_29" data-name="Group 29" transform="translate(0)">
        <path id="Path_249" data-name="Path 249" d="M173.184,213.779h-9.936a.776.776,0,0,0,0,1.553h9.936a.776.776,0,1,0,0-1.553Z" transform="translate(-162.472 -213.779)" fill="#fff"/>
      </g>
    </g>
    <g id="Group_32" data-name="Group 32" transform="translate(69.794 24.012)">
      <g id="Group_31" data-name="Group 31" transform="translate(0)">
        <path id="Path_250" data-name="Path 250" d="M169.872,247.983h-6.624a.776.776,0,0,0,0,1.553h6.624a.776.776,0,0,0,0-1.553Z" transform="translate(-162.472 -247.983)" fill="#fff"/>
      </g>
    </g>
    <g id="Group_34" data-name="Group 34" transform="translate(69.794 27.324)">
      <g id="Group_33" data-name="Group 33" transform="translate(0)">
        <path id="Path_251" data-name="Path 251" d="M173.184,282.188h-9.936a.776.776,0,1,0,0,1.553h9.936a.776.776,0,1,0,0-1.553Z" transform="translate(-162.472 -282.188)" fill="#fff"/>
      </g>
    </g>
    <g id="Group_36" data-name="Group 36" transform="translate(64.826 32.292)">
      <g id="Group_35" data-name="Group 35" transform="translate(0)">
        <path id="Path_252" data-name="Path 252" d="M115.2,338.692v-2.7c.572.187.932.565.932.915a.776.776,0,1,0,1.553,0,2.754,2.754,0,0,0-2.484-2.516v-.123a.776.776,0,0,0-1.553,0v.123a2.754,2.754,0,0,0-2.484,2.516c0,1.73,1.381,2.456,2.484,2.875v2.7c-.572-.187-.932-.565-.932-.915a.776.776,0,1,0-1.553,0,2.754,2.754,0,0,0,2.484,2.516v.123a.776.776,0,0,0,1.553,0v-.123a2.754,2.754,0,0,0,2.484-2.516C117.686,339.838,116.3,339.111,115.2,338.692Zm-1.553-.6c-.774-.379-.932-.71-.932-1.181,0-.35.36-.727.932-.915Zm1.553,4.391v-2.1c.774.379.932.71.932,1.181C116.133,341.917,115.773,342.294,115.2,342.482Z" transform="translate(-111.165 -333.494)" fill="#fff"/>
      </g>
    </g>
    <g id="Group_38" data-name="Group 38" transform="translate(73.106 33.948)">
      <g id="Group_37" data-name="Group 37" transform="translate(0)">
        <path id="Path_253" data-name="Path 253" d="M203.248,350.6h-5.8a.776.776,0,0,0,0,1.553h5.8a.776.776,0,0,0,0-1.553Z" transform="translate(-196.676 -350.597)" fill="#fff"/>
      </g>
    </g>
    <g id="Group_40" data-name="Group 40" transform="translate(73.106 40.572)">
      <g id="Group_39" data-name="Group 39" transform="translate(0)">
        <path id="Path_254" data-name="Path 254" d="M200.764,419.006h-3.312a.776.776,0,0,0,0,1.553h3.312a.776.776,0,1,0,0-1.553Z" transform="translate(-196.676 -419.006)" fill="#fff"/>
      </g>
    </g>
    <g id="Group_42" data-name="Group 42" transform="translate(79.73 40.572)">
      <g id="Group_41" data-name="Group 41" transform="translate(0)">
        <path id="Path_255" data-name="Path 255" d="M267.518,419.006h-1.656a.776.776,0,0,0,0,1.553h1.656a.776.776,0,0,0,0-1.553Z" transform="translate(-265.086 -419.006)" fill="#fff"/>
      </g>
    </g>
    <g id="Group_44" data-name="Group 44" transform="translate(73.106 37.26)">
      <g id="Group_43" data-name="Group 43" transform="translate(0)">
        <path id="Path_256" data-name="Path 256" d="M208.216,384.8H197.452a.776.776,0,0,0,0,1.553h10.764a.776.776,0,1,0,0-1.553Z" transform="translate(-196.676 -384.802)" fill="#fff"/>
      </g>
    </g>
    <g id="Group_46" data-name="Group 46" transform="translate(79.73 24.012)">
      <g id="Group_45" data-name="Group 45" transform="translate(0)">
        <circle id="Ellipse_4" data-name="Ellipse 4" cx="0.776" cy="0.776" r="0.776" fill="#fff"/>
      </g>
    </g>
    <g id="Group_48" data-name="Group 48" transform="translate(83.042 24.012)">
      <g id="Group_47" data-name="Group 47" transform="translate(0)">
        <circle id="Ellipse_5" data-name="Ellipse 5" cx="0.776" cy="0.776" r="0.776" fill="#fff"/>
      </g>
    </g>
    <g id="Group_50" data-name="Group 50" transform="translate(86.354 24.012)">
      <g id="Group_49" data-name="Group 49">
        <circle id="Ellipse_6" data-name="Ellipse 6" cx="0.776" cy="0.776" r="0.776" fill="#fff"/>
      </g>
    </g>
    <g id="Group_52" data-name="Group 52" transform="translate(83.042 20.7)">
      <g id="Group_51" data-name="Group 51" transform="translate(0)">
        <circle id="Ellipse_7" data-name="Ellipse 7" cx="0.776" cy="0.776" r="0.776" fill="#fff"/>
      </g>
    </g>
    <g id="Group_54" data-name="Group 54" transform="translate(86.354 20.7)">
      <g id="Group_53" data-name="Group 53">
        <circle id="Ellipse_8" data-name="Ellipse 8" cx="0.776" cy="0.776" r="0.776" fill="#fff"/>
      </g>
    </g>
    <g id="Group_56" data-name="Group 56" transform="translate(83.042 27.324)">
      <g id="Group_55" data-name="Group 55" transform="translate(0)">
        <circle id="Ellipse_9" data-name="Ellipse 9" cx="0.776" cy="0.776" r="0.776" fill="#fff"/>
      </g>
    </g>
    <g id="Group_58" data-name="Group 58" transform="translate(86.354 27.324)">
      <g id="Group_57" data-name="Group 57">
        <circle id="Ellipse_10" data-name="Ellipse 10" cx="0.776" cy="0.776" r="0.776" fill="#fff"/>
      </g>
    </g>
  </g>
</svg>
